<?xml version="1.0" encoding="UTF-8" standalone="no"?>
<!-- Created with Inkscape (http://www.inkscape.org/) -->

<svg
   width="100mm"
   height="100mm"
   viewBox="0 0 100 100"
   version="1.1"
   id="svg5"
   inkscape:export-filename="qhbdahs.png"
   inkscape:export-xdpi="96"
   inkscape:export-ydpi="96"
   inkscape:version="1.2.1 (9c6d41e410, 2022-07-14)"
   sodipodi:docname="rysunek.svg"
   xmlns:inkscape="http://www.inkscape.org/namespaces/inkscape"
   xmlns:sodipodi="http://sodipodi.sourceforge.net/DTD/sodipodi-0.dtd"
   xmlns="http://www.w3.org/2000/svg"
   xmlns:svg="http://www.w3.org/2000/svg">
  <sodipodi:namedview
     id="namedview7"
     pagecolor="#ffffff"
     bordercolor="#000000"
     borderopacity="0.25"
     inkscape:showpageshadow="2"
     inkscape:pageopacity="0.0"
     inkscape:pagecheckerboard="0"
     inkscape:deskcolor="#d1d1d1"
     inkscape:document-units="mm"
     showgrid="false"
     inkscape:lockguides="true"
     inkscape:zoom="1.3734779"
     inkscape:cx="206.41031"
     inkscape:cy="190.75662"
     inkscape:window-width="1600"
     inkscape:window-height="837"
     inkscape:window-x="-8"
     inkscape:window-y="-8"
     inkscape:window-maximized="1"
     inkscape:current-layer="layer1" />
  <defs
     id="defs2">
    <rect
       x="47.381007"
       y="299.07492"
       width="3.0542565"
       height="127.08904"
       id="rect2235" />
    <rect
       x="21.615258"
       y="283.33575"
       width="3.8091864"
       height="41.386926"
       id="rect2229" />
  </defs>
  <g
     inkscape:label="Warstwa 1"
     inkscape:groupmode="layer"
     id="layer1">
    <text
       xml:space="preserve"
       style="font-size:3.175px;fill:#000000;fill-opacity:1;stroke-width:0.264583"
       x="29.120314"
       y="93.047157"
       id="text2119"><tspan
         sodipodi:role="line"
         id="tspan2117"
         style="stroke-width:0.264583;fill:#000000"
         x="29.120314"
         y="93.047157" /></text>
    <text
       xml:space="preserve"
       transform="scale(0.26458333)"
       id="text2227"
       style="font-style:normal;font-variant:normal;font-weight:normal;font-stretch:normal;font-family:NSimSun;-inkscape-font-specification:NSimSun;white-space:pre;shape-inside:url(#rect2229);display:inline;fill:#000000;fill-opacity:1" />
    <text
       xml:space="preserve"
       transform="scale(0.26458333)"
       id="text2233"
       style="font-style:normal;font-variant:normal;font-weight:normal;font-stretch:normal;font-family:NSimSun;-inkscape-font-specification:NSimSun;white-space:pre;shape-inside:url(#rect2235);display:inline;fill:#000000;fill-opacity:1" />
    <rect
       style="fill:#00acf2;fill-opacity:1;stroke-width:0.264583"
       id="rect2306"
       width="100"
       height="100"
       x="0"
       y="0" />
    <g
       id="g4466"
       transform="translate(-17.788822,1.0891929)">
      <path
         style="fill:#ffffff;fill-opacity:1;stroke-width:0.265;stroke-dasharray:none"
         id="path3714"
         sodipodi:type="arc"
         sodipodi:cx="50"
         sodipodi:cy="65.477631"
         sodipodi:rx="17.788822"
         sodipodi:ry="17.788822"
         sodipodi:start="0"
         sodipodi:end="6.2121717"
         sodipodi:open="true"
         sodipodi:arc-type="arc"
         d="M 67.788822,65.477631 A 17.788822,17.788822 0 0 1 50.315796,83.263649 17.788822,17.788822 0 0 1 32.22239,66.109122 17.788822,17.788822 0 0 1 49.053012,47.714033 17.788822,17.788822 0 0 1 67.743987,64.215444" />
      <path
         style="fill:#ffffff;fill-opacity:1;stroke-width:0.265;stroke-dasharray:none"
         id="path3714-1"
         sodipodi:type="arc"
         sodipodi:cx="85.577644"
         sodipodi:cy="65.477631"
         sodipodi:rx="17.788822"
         sodipodi:ry="17.788822"
         sodipodi:start="0"
         sodipodi:end="6.2121717"
         sodipodi:open="true"
         sodipodi:arc-type="arc"
         d="M 103.36647,65.477631 A 17.788822,17.788822 0 0 1 85.89344,83.263649 17.788822,17.788822 0 0 1 67.800034,66.109122 17.788822,17.788822 0 0 1 84.630656,47.714033 17.788822,17.788822 0 0 1 103.32163,64.215444" />
    </g>
    <g
       id="g4577"
       transform="translate(0.0091095,16.566824)">
      <path
         style="fill:#000000;fill-opacity:1;stroke-width:0.264999;stroke-dasharray:none"
         id="path4522"
         sodipodi:type="arc"
         sodipodi:cx="41.057011"
         sodipodi:cy="50"
         sodipodi:rx="8.1938057"
         sodipodi:ry="8.1938057"
         sodipodi:start="0"
         sodipodi:end="6.2121717"
         sodipodi:open="true"
         sodipodi:arc-type="arc"
         d="m 49.250816,50 a 8.1938057,8.1938057 0 0 1 -8.048345,8.192514 8.1938057,8.1938057 0 0 1 -8.334101,-7.901639 8.1938057,8.1938057 0 0 1 7.752443,-8.473062 8.1938057,8.1938057 0 0 1 8.609352,7.600804" />
      <path
         style="fill:#000000;fill-opacity:1;stroke-width:0.264999;stroke-dasharray:none"
         id="path4522-0"
         sodipodi:type="arc"
         sodipodi:cx="58.92477"
         sodipodi:cy="50"
         sodipodi:rx="8.1938057"
         sodipodi:ry="8.1938057"
         sodipodi:start="0"
         sodipodi:end="6.2121717"
         sodipodi:open="true"
         sodipodi:arc-type="arc"
         d="m 67.118576,50 a 8.1938057,8.1938057 0 0 1 -8.048345,8.192514 8.1938057,8.1938057 0 0 1 -8.334102,-7.901639 8.1938057,8.1938057 0 0 1 7.752444,-8.473062 8.1938057,8.1938057 0 0 1 8.609351,7.600804" />
    </g>
    <path
       style="fill:#000000;fill-opacity:1;stroke-width:0.264999;stroke-dasharray:none"
       d="M 30.436722,29.858811 70.697957,29.473535"
       id="path4633"
       sodipodi:nodetypes="cc" />
    <rect
       style="fill:#ff2a2a;fill-opacity:1;stroke-width:0.264999;stroke-dasharray:none"
       id="rect4745"
       width="44.691898"
       height="3.6601121"
       x="27.654051"
       y="19.84166"
       rx="3"
       ry="3" />
    <rect
       style="fill:#ff2a2a;fill-opacity:1;stroke-width:0.103661;stroke-dasharray:none"
       id="rect4745-7"
       width="13.67726"
       height="6.8386278"
       x="9.8245115"
       y="-53.419315"
       transform="rotate(90)"
       rx="3.7368422"
       ry="3" />
  </g>
</svg>
